<svg width="196" height="153" viewBox="0 0 196 153" fill="none" xmlns="http://www.w3.org/2000/svg">
<rect x="0.5" width="195" height="153" rx="76.5" fill="#DBEAFE"/>
<path d="M51.2464 87.8636V82.0511L65.8203 59.0909H70.8317V67.1364H67.8658L58.6783 81.6761V81.9489H79.3885V87.8636H51.2464ZM68.0021 94V86.0909L68.1385 83.517V59.0909H75.059V94H68.0021ZM97.9936 94.767C95.0618 94.7557 92.5391 94.0341 90.4254 92.6023C88.3232 91.1705 86.7038 89.0966 85.5675 86.3807C84.4425 83.6648 83.8857 80.3977 83.897 76.5795C83.897 72.7727 84.4595 69.5284 85.5845 66.8466C86.7209 64.1648 88.3402 62.125 90.4425 60.7273C92.5561 59.3182 95.0732 58.6136 97.9936 58.6136C100.914 58.6136 103.425 59.3182 105.528 60.7273C107.641 62.1364 109.266 64.1818 110.403 66.8636C111.539 69.5341 112.102 72.7727 112.09 76.5795C112.09 80.4091 111.522 83.6818 110.386 86.3977C109.261 89.1136 107.647 91.1875 105.545 92.6193C103.442 94.0511 100.925 94.767 97.9936 94.767ZM97.9936 88.6477C99.9936 88.6477 101.59 87.642 102.783 85.6307C103.977 83.6193 104.567 80.6023 104.556 76.5795C104.556 73.9318 104.283 71.7273 103.738 69.9659C103.204 68.2045 102.442 66.8807 101.454 65.9943C100.477 65.108 99.3232 64.6648 97.9936 64.6648C96.005 64.6648 94.4141 65.6591 93.2209 67.6477C92.0277 69.6364 91.4254 72.6136 91.4141 76.5795C91.4141 79.2614 91.6811 81.5 92.2152 83.2955C92.7607 85.0795 93.5277 86.4205 94.5163 87.3182C95.505 88.2045 96.6641 88.6477 97.9936 88.6477ZM116.825 87.8636V82.0511L131.398 59.0909H136.41V67.1364H133.444L124.256 81.6761V81.9489H144.967V87.8636H116.825ZM133.58 94V86.0909L133.717 83.517V59.0909H140.637V94H133.58Z" fill="#3B82F6"/>
</svg>
